# xmcd
#
# Track frame offsets:
# 150
# 21448
# 47918
# 67962
# 94519
# 108271
# 129023
# 152387
# 167062
# 181064
# 198262
# 218974
#
# Disc length: 3205 seconds
#
#
# Revision: 0
# Processed by: cddbd v1.5.1PL0 Copyright (c) Steve Scherf et al.
# Submitted via: FreeRIP 2.51 
#
DISCID=920c830c
DTITLE=Dark Side Of A Small Town - Michael O'Neal
DYEAR=2004
DGENRE=Other
TTITLE0=52 Les Paul
TTITLE1=Till Death Do Us Part
TTITLE2=The Promise Ring
TTITLE3=Luke
TTITLE4=Hey Momma
TTITLE5=Adam's Song
TTITLE6=The Halfway House
TTITLE7=Cocaine Blues
TTITLE8=Steph
TTITLE9=The Lost Train
TTITLE10=Rob's Blues
TTITLE11=7-12's
EXTD=
EXTT0=
EXTT1=
EXTT2=
EXTT3=
EXTT4=
EXTT5=
EXTT6=
EXTT7=
EXTT8=
EXTT9=
EXTT10=
EXTT11=
PLAYORDER=
